<svg width="68" height="21" viewBox="0 0 68 21" fill="none" xmlns="http://www.w3.org/2000/svg">
<path d="M42.0666 16.1952C38.1726 19.0654 32.5285 20.5967 27.669 20.5967C20.8552 20.5967 14.721 18.0766 10.0803 13.885C9.71566 13.5554 10.0424 13.1062 10.4799 13.3629C15.4881 16.2769 21.6807 18.0299 28.0773 18.0299C32.3914 18.0299 37.1371 17.1373 41.5008 15.2851C42.16 15.0051 42.7113 15.7168 42.0666 16.1952Z" fill="#FF9900"/>
<path d="M43.6852 14.3429C43.1893 13.707 40.395 14.0424 39.1407 14.1912C38.7586 14.2379 38.7003 13.9053 39.0444 13.6662C41.27 12.0998 44.9219 12.5519 45.3478 13.0769C45.7737 13.6049 45.237 17.2656 43.1456 19.0128C42.8247 19.2811 42.5184 19.1382 42.6614 18.7823C43.131 17.6098 44.184 14.9817 43.6852 14.3429Z" fill="#FF9900"/>
<path d="M39.2285 2.60825V1.08565C39.2285 0.855216 39.4035 0.700623 39.6135 0.700623H46.4303C46.649 0.700623 46.824 0.858133 46.824 1.08565V2.38949C46.8211 2.60825 46.6374 2.89411 46.3107 3.34622L42.7783 8.38949C44.0909 8.3574 45.4765 8.55283 46.6665 9.22371C46.9349 9.37539 47.0078 9.59707 47.0282 9.81584V11.4405C47.0282 11.6622 46.7832 11.9218 46.5265 11.7876C44.4293 10.688 41.6437 10.5684 39.3248 11.7993C39.0885 11.9276 38.8406 11.671 38.8406 11.4493V9.90626C38.8406 9.65833 38.8435 9.23538 39.0914 8.8591L43.1838 2.99036H39.6223C39.4035 2.99036 39.2285 2.83577 39.2285 2.60825Z" fill="#221F1F"/>
<path d="M14.3621 12.1087H12.2882C12.0898 12.0941 11.9323 11.9454 11.9177 11.7558V1.11214C11.9177 0.899211 12.0957 0.730031 12.3173 0.730031H14.2512C14.4525 0.738776 14.6129 0.893376 14.6275 1.08589V2.47724H14.6654C15.17 1.13256 16.118 0.505432 17.3956 0.505432C18.6936 0.505432 19.5045 1.13256 20.0879 2.47724C20.5896 1.13256 21.7301 0.505432 22.9522 0.505432C23.8215 0.505432 24.7724 0.864207 25.3528 1.66926C26.0091 2.56474 25.8749 3.86566 25.8749 5.00616L25.872 11.7237C25.872 11.9366 25.6941 12.1087 25.4724 12.1087H23.4014C23.1943 12.0941 23.0281 11.9279 23.0281 11.7237V6.08248C23.0281 5.63329 23.0689 4.51321 22.9697 4.08735C22.8151 3.37271 22.3514 3.17145 21.7505 3.17145C21.2488 3.17145 20.7238 3.50689 20.5108 4.04359C20.2979 4.5803 20.3183 5.47869 20.3183 6.08248V11.7237C20.3183 11.9366 20.1404 12.1087 19.9187 12.1087H17.8477C17.6377 12.0941 17.4744 11.9279 17.4744 11.7237L17.4714 6.08248C17.4714 4.89532 17.6669 3.14811 16.1939 3.14811C14.7033 3.14811 14.7617 4.85156 14.7617 6.08248V11.7237C14.7617 11.9366 14.5837 12.1087 14.3621 12.1087Z" fill="#221F1F"/>
<path d="M52.6924 0.505432C55.7697 0.505432 57.4352 3.14811 57.4352 6.50835C57.4352 9.75482 55.5947 12.3304 52.6924 12.3304C49.6705 12.3304 48.0254 9.68773 48.0254 6.39459C48.0254 3.08103 49.6909 0.505432 52.6924 0.505432ZM52.7099 2.6785C51.1814 2.6785 51.0852 4.76114 51.0852 6.05915C51.0852 7.36007 51.0648 10.1369 52.6924 10.1369C54.2996 10.1369 54.3754 7.89678 54.3754 6.53168C54.3754 5.63329 54.3375 4.55988 54.0662 3.70815C53.8329 2.96727 53.3691 2.6785 52.7099 2.6785Z" fill="#221F1F"/>
<path d="M61.426 12.1087H59.3609C59.1538 12.0941 58.9875 11.9279 58.9875 11.7237L58.9846 1.07714C59.0021 0.881708 59.1742 0.730031 59.3842 0.730031H61.3064C61.4873 0.738776 61.636 0.861291 61.6769 1.02755V2.65516H61.7148C62.2953 1.19965 63.1091 0.505432 64.5412 0.505432C65.4717 0.505432 66.3789 0.840872 66.9623 1.75968C67.5048 2.61141 67.5048 4.04359 67.5048 5.07325V11.7733C67.4815 11.96 67.3094 12.1087 67.1052 12.1087H65.0254C64.8359 12.0941 64.6783 11.9541 64.6579 11.7733V5.99206C64.6579 4.82823 64.7921 3.12478 63.3599 3.12478C62.8553 3.12478 62.3915 3.46314 62.1611 3.9765C61.8694 4.62697 61.8315 5.27451 61.8315 5.99206V11.7237C61.8286 11.9366 61.6477 12.1087 61.426 12.1087Z" fill="#221F1F"/>
<path d="M33.7947 7.02449V6.57529C32.2954 6.57529 30.7115 6.89615 30.7115 8.66377C30.7115 9.55925 31.1753 10.166 31.9716 10.166C32.555 10.166 33.0771 9.80718 33.4067 9.22381C33.8151 8.50626 33.7947 7.83246 33.7947 7.02449ZM35.8861 12.0794C35.749 12.2019 35.5506 12.2107 35.396 12.129C34.7077 11.5573 34.5851 11.2919 34.206 10.7464C33.0684 11.9073 32.2633 12.2544 30.7874 12.2544C29.0431 12.2544 27.6838 11.1781 27.6838 9.02255C27.6838 7.33951 28.5968 6.19318 29.8948 5.63314C31.0207 5.13727 32.5929 5.04977 33.7947 4.91268V4.64433C33.7947 4.15137 33.8326 3.568 33.5438 3.14214C33.2901 2.76003 32.8059 2.60252 32.38 2.60252C31.5895 2.60252 30.8836 3.00796 30.7115 3.84802C30.6765 4.0347 30.5395 4.21846 30.3528 4.22721L28.3401 4.01136C28.171 3.97345 27.9843 3.83635 28.0309 3.57675C28.4947 1.13825 30.697 0.403198 32.6688 0.403198C33.678 0.403198 34.9964 0.67155 35.7927 1.43577C36.802 2.37792 36.7057 3.63509 36.7057 5.0031V8.23499C36.7057 9.20631 37.1082 9.63217 37.4874 10.1572C37.6216 10.3439 37.6508 10.5685 37.4816 10.7085C37.0587 11.0614 36.3061 11.7177 35.8919 12.0853L35.8861 12.0794Z" fill="#221F1F"/>
<path d="M6.6062 7.02449V6.57529C5.10693 6.57529 3.52307 6.89615 3.52307 8.66377C3.52307 9.55925 3.98685 10.166 4.78316 10.166C5.36653 10.166 5.88865 9.80718 6.21826 9.22381C6.62662 8.50626 6.6062 7.83246 6.6062 7.02449ZM8.69759 12.0794C8.5605 12.2019 8.36215 12.2107 8.20756 12.129C7.51918 11.5573 7.39667 11.2919 7.01748 10.7464C5.8799 11.9073 5.07484 12.2544 3.59891 12.2544C1.85462 12.2544 0.495361 11.1781 0.495361 9.02255C0.495361 7.33951 1.40834 6.19318 2.70635 5.63314C3.83226 5.13727 5.40445 5.04977 6.6062 4.91268V4.64433C6.6062 4.15137 6.64412 3.568 6.35535 3.14214C6.10158 2.76003 5.61738 2.60252 5.19152 2.60252C4.40105 2.60252 3.69516 3.00796 3.52307 3.84802C3.48807 4.0347 3.35097 4.21846 3.1643 4.22721L1.15166 4.01136C0.982478 3.97345 0.795798 3.83635 0.842468 3.57675C1.30625 1.13825 3.50848 0.403198 5.48029 0.403198C6.48952 0.403198 7.80795 0.67155 8.60425 1.43577C9.61349 2.37792 9.51723 3.63509 9.51723 5.0031V8.23499C9.51723 9.20631 9.91976 9.63217 10.299 10.1572C10.4331 10.3439 10.4623 10.5685 10.2931 10.7085C9.87018 11.0614 9.11762 11.7177 8.70343 12.0853L8.69759 12.0794Z" fill="#221F1F"/>
</svg>
